<svg width="41" height="41" viewBox="0 0 41 41" fill="none" xmlns="http://www.w3.org/2000/svg">
<path d="M20.5 7.25317C18.1472 7.25317 16.2329 8.94843 16.2329 11.0321C16.2329 13.1157 18.1472 14.8109 20.5 14.8109C22.8529 14.8109 24.7671 13.1157 24.7671 11.0321C24.7671 8.94843 22.8529 7.25317 20.5 7.25317Z" fill="white"/>
<path d="M34.4029 30.383C32.2373 29.8367 29.6647 29.4335 26.865 29.1907C24.1504 32.8203 21.8051 35.455 21.5724 35.7149C21.3128 36.0048 20.9178 36.1737 20.5 36.1737C20.0823 36.1737 19.6873 36.0048 19.4277 35.7149C19.195 35.455 16.8497 32.8204 14.1351 29.1907C11.3353 29.4335 8.76277 29.8367 6.59719 30.383C2.21965 31.4874 0 33.0278 0 34.9615C0 36.8952 2.21965 38.4356 6.59719 39.54C10.3293 40.4815 15.2665 41 20.5 41C25.7335 41 30.6708 40.4815 34.4028 39.5401C38.7804 38.4357 41 36.8953 41 34.9616C41 33.0279 38.7804 31.4874 34.4029 30.383Z" fill="white"/>
<path d="M20.5001 0C13.631 0 8.04245 4.94899 8.04245 11.0323C8.04245 14.2787 10.3616 19.2961 14.7491 25.5419C16.9774 28.7139 19.2216 31.4571 20.5001 32.967C21.7818 31.4528 24.0347 28.6988 26.2652 25.5218C30.6434 19.2855 32.9577 14.2751 32.9577 11.0324C32.9577 4.94899 27.3692 0 20.5001 0ZM20.5001 17.2356C16.6378 17.2356 13.4953 14.4527 13.4953 11.0323C13.4953 7.61175 16.6378 4.82895 20.5001 4.82895C24.3625 4.82895 27.505 7.61175 27.505 11.0323C27.505 14.4528 24.3625 17.2356 20.5001 17.2356Z" fill="#FF3811"/>
</svg>
